# xmcd
# 
# Track frame offsets:
#     150
#     18606
#     28703
#     41070
#     58674
#     71668
#     88371
#     106005
#     118223
#     134872
#     146691
#     158098
#     173887
# 
# Disc length: 2489
# 
# Revision: 0
# Processed by: cddbd v1.5.2PL0 Copyright (c) Steve Scherf et al.
# Submitted via: fre:ac v1.0.17
# 
DISCID=c309b70d
DTITLE=Lisa Ekdahl - Bortom det blå
DYEAR=1997
DGENRE=Blues
TTITLE0=Bortom det blå
TTITLE1=Gå dit ifall du minns
TTITLE2=Två lyckliga dårar
TTITLE3=Jag behöver inget mer
TTITLE4=Vi tillhör varann
TTITLE5=Sakta, sakta
TTITLE6=Jag vill bara vara
TTITLE7=Du var inte där för mig
TTITLE8=Hyenorna skrattade, gamarna log
TTITLE9=Genom dig ser jag ljuset
TTITLE10=Cirklar
TTITLE11=Vill ha dig kvar
TTITLE12=Tänk inte mera
EXTD=YEAR: 1997 ID3G:   0
EXTT0=
EXTT1=
EXTT2=
EXTT3=
EXTT4=
EXTT5=
EXTT6=
EXTT7=
EXTT8=
EXTT9=
EXTT10=
EXTT11=
EXTT12=
PLAYORDER=
